<?xml version="1.0" standalone="no"?>
<!DOCTYPE svg PUBLIC "-//W3C//DTD SVG 20010904//EN"
 "http://www.w3.org/TR/2001/REC-SVG-20010904/DTD/svg10.dtd">
<svg version="1.0" xmlns="http://www.w3.org/2000/svg"
 width="453.000000pt" height="453.000000pt" viewBox="0 0 453.000000 453.000000"
 preserveAspectRatio="xMidYMid meet">

<g transform="translate(0.000000,453.000000) scale(0.100000,-0.100000)"
fill="#000000" stroke="none">
<path d="M1630 3869 c-161 -27 -243 -75 -516 -305 l-61 -52 -79 14 c-44 8 -85
16 -91 19 -14 5 -138 -100 -138 -117 0 -5 29 -21 65 -35 36 -14 69 -29 74 -34
5 -4 -2 -22 -14 -39 -27 -38 -23 -73 19 -133 47 -69 63 -79 117 -75 l49 3 3
-70 c4 -102 2 -101 78 -60 37 19 73 40 79 45 7 6 18 49 25 96 14 98 -9 76 218
209 172 102 235 154 297 246 52 75 101 187 112 251 l5 35 -47 6 c-60 9 -125 7
-195 -4z m-81 -206 c35 -29 37 -74 6 -111 -37 -44 -83 -44 -120 0 -21 25 -25
38 -21 62 8 40 40 66 81 66 18 0 42 -8 54 -17z"/>
<path d="M736 3230 c-44 -41 -89 -125 -101 -191 -6 -32 -4 -37 17 -42 76 -21
219 3 267 44 31 26 16 47 -20 28 -25 -13 -163 -19 -174 -7 -11 11 22 111 50
152 46 68 26 76 -39 16z"/>
<path d="M2330 3205 c-248 -34 -476 -134 -624 -274 -60 -57 -128 -148 -140
-188 l-7 -23 965 0 c788 0 966 2 966 13 0 23 -59 108 -118 170 -226 237 -639
357 -1042 302z"/>
<path d="M477 2846 c-136 -205 -208 -445 -208 -691 0 -208 42 -388 132 -566
73 -146 198 -329 226 -329 31 0 21 32 -36 111 -174 245 -258 474 -268 734 -10
259 50 481 188 695 28 44 48 84 44 90 -15 24 -44 8 -78 -44z"/>
<path d="M1520 2570 l0 -60 1005 0 1005 0 0 60 0 60 -1005 0 -1005 0 0 -60z"/>
<path d="M1140 2380 l0 -60 1400 0 1401 0 -3 58 -3 57 -1397 3 -1398 2 0 -60z"/>
<path d="M1270 2180 l0 -60 1263 2 1262 3 3 58 3 57 -1266 0 -1265 0 0 -60z"/>
<path d="M1520 2022 c-25 -9 -66 -38 -91 -63 -144 -142 -107 -400 68 -486 49
-23 71 -28 138 -28 104 0 159 21 217 83 50 54 81 136 76 204 l-3 43 -140 0
-140 0 -3 -57 -3 -58 56 0 c46 0 55 -3 55 -17 -1 -65 -113 -96 -181 -50 -119
80 -71 317 64 317 45 0 94 -26 111 -59 l16 -30 67 28 c37 15 68 32 70 37 7 22
-67 102 -119 128 -44 22 -65 26 -132 25 -50 0 -99 -7 -126 -17z"/>
<path d="M2220 1740 l0 -290 80 0 80 0 0 110 0 110 80 0 80 0 0 70 0 70 -80 0
-80 0 0 45 0 45 90 0 90 0 0 65 0 65 -170 0 -170 0 0 -290z"/>
<path d="M2930 1735 l0 -285 159 0 159 0 4 61 c1 33 1 63 -1 65 -2 2 -42 4
-88 4 l-83 0 0 220 0 220 -75 0 -75 0 0 -285z"/>
<path d="M3560 1735 l0 -285 75 0 75 0 0 285 0 285 -75 0 -75 0 0 -285z"/>
<path d="M1270 1310 l0 -60 1270 0 1271 0 -3 58 -3 57 -1267 3 -1268 2 0 -60z"/>
</g>
</svg>
